Coordinates
version=1
nRows=10
nColumns=40
inDegrees=yes

Units are S.I. units (second, meters, Newtons, ...)
If the header above contains a line with 'inDegrees', this indicates whether rotational values are in degrees (yes) or radians (no).

endheader
time	pelvis_tilt	pelvis_list	pelvis_rotation	pelvis_tx	pelvis_ty	pelvis_tz	hip_flexion_r	hip_adduction_r	hip_rotation_r	knee_angle_r	knee_angle_r_beta	ankle_angle_r	subtalar_angle_r	mtp_angle_r	hip_flexion_l	hip_adduction_l	hip_rotation_l	knee_angle_l	knee_angle_l_beta	ankle_angle_l	subtalar_angle_l	mtp_angle_l	lumbar_extension	lumbar_bending	lumbar_rotation	arm_flex_r	arm_add_r	arm_rot_r	elbow_flex_r	pro_sup_r	wrist_flex_r	wrist_dev_r	arm_flex_l	arm_add_l	arm_rot_l	elbow_flex_l	pro_sup_l	wrist_flex_l	wrist_dev_l
     18.42500000000000071054	     38.24581696015221154994	    -11.10693328862219964037	    179.03776551084777679534	      0.35360936033678946888	      0.69755146567911407995	     -0.59341317745566535269	    100.30330898831343233724	     -6.14895405630685498721	     10.28569333190122669919	     78.97525667314751274262	      1.37837825655404744296	     18.20023181493763431149	      0.00000000000000000000	      0.00000000000000000000	     93.70886600062708282621	     -5.80622775734139562331	    -11.85751042686544387550	     77.80991255075478818526	      1.35803916469953045443	     21.99786197692510825163	      0.00000000000000000000	      0.00000000000000000000	    -34.22387333704454448480	     -9.17671089341593848587	     -5.73683828358774494660	     56.00692558002561582953	    -12.35866405474897788963	     39.80053810818073145583	     10.02140654537666009105	      5.44490172398850269531	      0.00000000000000000000	      0.00000000000000000000	     62.73197651960115450720	    -15.56869009287402860764	     36.77513728692240846385	     14.82158799825106143544	     87.70794485630396764009	      0.00000000000000000000	      0.00000000000000000000
     18.42999999999999971578	     38.35686276525436255724	    -11.05970099003999784770	    179.00833393330771059482	      0.35364623473875950177	      0.69856535318251977706	     -0.59336962063229137243	    100.25521609888535579103	     -6.14463901717136096181	     10.20793592984322373241	     78.74047223488025792903	      1.37428049507383831518	     18.10716282746862759723	      0.00000000000000000000	      0.00000000000000000000	     93.68227486065646303359	     -5.86724933118360869599	    -11.89388365258032287386	     77.59578105444991535933	      1.35430186505678840092	     21.93485941622915547100	      0.00000000000000000000	      0.00000000000000000000	    -34.16519373236083367829	     -9.14511005142226451881	     -5.66406536248267489242	     56.02773246464438727799	    -12.36624747409224411854	     39.76131088576750727270	     10.02188507395099925645	      5.43341034126039623686	      0.00000000000000000000	      0.00000000000000000000	     62.73738693404612121185	    -15.56353208512439856293	     36.72197866126191456715	     14.84161888381903970924	     87.71079940619307535599	      0.00000000000000000000	      0.00000000000000000000
     18.43499999999999872102	     38.50086300493770608000	    -11.04301781474375232506	    179.02623473961250510911	      0.35380120679033183473	      0.69980457764814518740	     -0.59313619126627437073	    100.21244924392159703075	     -6.20172658048218483628	     10.12799886055227815973	     78.40883274032121619257	      1.36849229396413329951	     17.96695947951702976297	      0.00000000000000000000	      0.00000000000000000000	     93.65008638923269757015	     -5.80357389222245778626	    -11.87856266675910532626	     77.26252899082106750939	      1.34848551930739946059	     21.79143725546595433684	      0.00000000000000000000	      0.00000000000000000000	    -34.10782410382621065992	     -9.12022811125313914715	     -5.67784397206771274114	     56.06680611044496487239	    -12.35526952159742641868	     39.70628675678967312024	     10.03399393778464521176	      5.42299603461961154949	      0.00000000000000000000	      0.00000000000000000000	     62.75191632010555764509	    -15.56039747033331721582	     36.63288642663283667389	     14.88161890088752770112	     87.71184504300212836370	      0.00000000000000000000	      0.00000000000000000000
     18.44000000000000127898	     38.64430108084171422433	    -10.99423093463520828550	    179.07692442564271573247	      0.35398446494488550185	      0.70095799220453258727	     -0.59297730371521795156	    100.18263209692811699369	     -6.25077643405787508613	     10.07003345278304351496	     78.13475253695126809816	      1.36370869200079192218	     17.80165810843749341075	      0.00000000000000000000	      0.00000000000000000000	     93.63295030622388992469	     -5.69887177990803728278	    -11.79687476629021780639	     76.93537642475844506862	      1.34277562987325826960	     21.64018769334785119440	      0.00000000000000000000	      0.00000000000000000000	    -34.03282405782684350015	     -9.04798339044623567418	     -5.68208722946887956340	     56.11092121711079272472	    -12.32926924409293789608	     39.64370961130030224240	      9.99629011162591929462	      5.39912745895439893928	      0.00000000000000000000	      0.00000000000000000000	     62.77107042078196741386	    -15.52998305021633740353	     36.48050611270407728171	     14.85894934866008654240	     87.71851896568172435309	      0.00000000000000000000	      0.00000000000000000000
     18.44500000000000028422	     38.76798854080686140833	    -10.96225379795399845761	    179.02830022498054063362	      0.35403217145671755928	      0.70211498656320980860	     -0.59293696539469442630	    100.10900767440575975797	     -6.25607842365355182324	      9.94511753943201348704	     77.82490700369885416876	      1.35830086727293974924	     17.71585162094239507269	      0.00000000000000000000	      0.00000000000000000000	     93.58013717135011688697	     -5.82014776117002252676	    -11.92385574554369220834	     76.67788106234081624279	      1.33828148799045476558	     21.59573507645450618497	      0.00000000000000000000	      0.00000000000000000000	    -33.96243760003368095113	     -9.04694547392582393286	     -5.60019342362213201625	     56.14412070686725542146	    -12.34282485042091614957	     39.62673193712424790647	      9.97465866338778184286	      5.38919637009779073367	      0.00000000000000000000	      0.00000000000000000000	     62.77047662665997762588	    -15.50424168578353167902	     36.41802364496142985217	     14.88328029051436551811	     87.72089603688704073647	      0.00000000000000000000	      0.00000000000000000000
     18.44999999999999928946	     38.89892860490473225354	    -10.93170688424967273988	    179.02664840465524775937	      0.35415761623434605099	      0.70342268701316890134	     -0.59288721345007944219	     99.99528542176075518455	     -6.23550266749377168907	      9.91758027261808727815	     77.44521935954638536259	      1.35167406775333853730	     17.63459027046513938330	      0.00000000000000000000	      0.00000000000000000000	     93.51815083798780392499	     -5.81815785222412085176	    -11.93831468376154170130	     76.33816041777353689213	      1.33235224420575826265	     21.48791817022231498413	      0.00000000000000000000	      0.00000000000000000000	    -33.90818412664983583227	     -9.03168976802441214602	     -5.55178383997999524979	     56.17774137106489718008	    -12.35102085791860737629	     39.59904057710554781124	      9.96228073532351920960	      5.37767609718081729397	      0.00000000000000000000	      0.00000000000000000000	     62.81003695870906256005	    -15.48015516450857909092	     36.34377287419688684622	     14.89367608774561446694	     87.72172622592874802194	      0.00000000000000000000	      0.00000000000000000000
     18.45499999999999829470	     39.02376731800018916374	    -10.90747967594555234427	    179.01138712081055359704	      0.35424639733564466937	      0.70466584450490044045	     -0.59280383938437186675	     99.93839710064428061287	     -6.23652896141916279760	      9.84287166279409575509	     77.15139015087090967882	      1.34654578062342200617	     17.50712851759481480940	      0.00000000000000000000	      0.00000000000000000000	     93.45086666158810828620	     -5.85520132575273510867	    -12.00433876470372673850	     76.02891616865950652482	      1.32695491386586095217	     21.38364550453118795303	      0.00000000000000000000	      0.00000000000000000000	    -33.84298478359222883682	     -9.01986059403863826844	     -5.51424406259776755945	     56.20377164845545081562	    -12.35255534268799770814	     39.58101449460437493144	      9.95391452851166036453	      5.36878692716728789236	      0.00000000000000000000	      0.00000000000000000000	     62.82751567647886759005	    -15.43569221771625166184	     36.27188811204455021198	     14.87338110388996703648	     87.72089060519590475451	      0.00000000000000000000	      0.00000000000000000000
     18.46000000000000085265	     39.16415977884609844750	    -10.93954523852147175944	    178.98771559352118742936	      0.35441278486453875463	      0.70600442636006577324	     -0.59262573872439827660	     99.88206218424177507131	     -6.21281104835082143012	      9.86215631789937674512	     76.80042368180133394162	      1.34042026017405913052	     17.34220622081554807892	      0.00000000000000000000	      0.00000000000000000000	     93.38421254525857762019	     -5.60522742891477943061	    -11.80655765075161767186	     75.53677643915047212886	      1.31836545520605397108	     21.35439076155240911703	      0.00000000000000000000	      0.00000000000000000000	    -33.77351967150070777279	     -9.06609133690617596812	     -5.46422800381097584221	     56.23338747837167517218	    -12.39513460057670712899	     39.54939382469230224615	      9.93523275516933424001	      5.35235742390662583290	      0.00000000000000000000	      0.00000000000000000000	     62.88210417679263741775	    -15.35482244159357279045	     36.19213506992333151402	     14.84661213382686462126	     87.72290738130151055429	      0.00000000000000000000	      0.00000000000000000000
     18.46499999999999985789	     39.29531590933652296371	    -10.92449575970554320747	    178.99995541948052846237	      0.35445011387834013394	      0.70725198868247496353	     -0.59246774701671633956	     99.81652350140579699200	     -6.29333736659214526554	      9.72728880888395863735	     76.47906400434085583129	      1.33481147571922686978	     17.22875878101886470972	      0.00000000000000000000	      0.00000000000000000000	     93.32533030216710301374	     -5.61465976008763334448	    -11.89657819806233796101	     75.24042597189267667090	      1.31319316381258177628	     21.25367719063754634590	      0.00000000000000000000	      0.00000000000000000000	    -33.69227352381449236418	     -9.04484526728247750782	     -5.43484748245914150999	     56.24127848237480975513	    -12.41180882834407661619	     39.51384885593362383815	      9.93354320981964988846	      5.33866520283397871793	      0.00000000000000000000	      0.00000000000000000000	     62.91629304027242852726	    -15.29982214433023202105	     36.16683808503360353370	     14.79975813724238697944	     87.72680014949112603517	      0.00000000000000000000	      0.00000000000000000000
     18.46999999999999886313	     39.33409326029165953287	    -10.89989052674747682659	    178.90886285549814260776	      0.35433573097068321589	      0.70822582441829007305	     -0.59263284462060716873	     99.72162588845193909037	     -6.20741366323343601863	      9.69349661786808169950	     76.32657698611414787138	      1.33215007518462225100	     17.16295127142602083836	      0.00000000000000000000	      0.00000000000000000000	     93.24551796514720081177	     -5.76245275425920322476	    -11.95419180015263904693	     75.11621573628150372315	      1.31102528623648884043	     21.22968179582410996886	      0.00000000000000000000	      0.00000000000000000000	    -33.64449000460328420559	     -9.08659981720871812172	     -5.31988102367620729893	     56.17320366517791541128	    -12.40608981927958254232	     39.50916522956277532330	      9.90876794686374040566	      5.33226696664651811375	      0.00000000000000000000	      0.00000000000000000000	     62.91326776797548347986	    -15.27236189056438320222	     36.16551209820258350192	     14.78996126865536631101	     87.72903670000739850821	      0.00000000000000000000	      0.00000000000000000000
